HIERARCHY
ROOT Hips
{
	OFFSET 0.000000 35.082581 0.000000
	CHANNELS 6 Xposition Yposition Zposition Xrotation Yrotation Zrotation 
	JOINT Spine
	{
		OFFSET 0.000000 6.876099 0.125700
		CHANNELS 3 Xrotation Yrotation Zrotation
		JOINT Spine1
		{
			OFFSET 0.000000 5.730043 0.104720
			CHANNELS 3 Xrotation Yrotation Zrotation
			JOINT Spine1_split
			{
				OFFSET 0.000000 5.730043 0.104720
				CHANNELS 3 Xrotation Yrotation Zrotation
				JOINT Spine2
				{
					OFFSET 0.000000 5.730043 0.104720
					CHANNELS 3 Xrotation Yrotation Zrotation
					JOINT Neck
					{
						OFFSET 0.000000 10.314075 0.188496
						CHANNELS 3 Xrotation Yrotation Zrotation
						JOINT Head
						{
							OFFSET 0.000000 7.643700 -2.377400
							CHANNELS 3 Xrotation Yrotation Zrotation
							JOINT HeadTop_End
							{
								OFFSET 0.000000 43.788605 -13.619600
								CHANNELS 3 Xrotation Yrotation Zrotation
								End Site
								{
									OFFSET 0.000000 0.000000 0.000000
								}
							}
						}
					}
					JOINT LeftShoulder
					{
						OFFSET 2.196100 4.412489 0.087492
						CHANNELS 3 Xrotation Yrotation Zrotation
						JOINT LeftShoulder_split
						{
							OFFSET 2.196100 4.412489 0.087492
							CHANNELS 3 Xrotation Yrotation Zrotation
							JOINT LeftArm
							{
								OFFSET 8.771219 -2.981674 -0.026999
								CHANNELS 3 Xrotation Yrotation Zrotation
								JOINT LeftForeArm
								{
									OFFSET 8.512804 0.000000 -0.000000
									CHANNELS 3 Xrotation Yrotation Zrotation
									JOINT LeftHand
									{
										OFFSET 18.484802 0.000000 -0.000000
										CHANNELS 3 Xrotation Yrotation Zrotation
										JOINT LeftHandThumb1
										{
											OFFSET 2.499420 -1.158070 2.653252
											CHANNELS 3 Xrotation Yrotation Zrotation
											JOINT LeftHandThumb2
											{
												OFFSET 2.370079 -1.368366 1.368366
												CHANNELS 3 Xrotation Yrotation Zrotation
												JOINT LeftHandThumb3
												{
													OFFSET 2.676727 -1.545410 1.545409
													CHANNELS 3 Xrotation Yrotation Zrotation
													JOINT LeftHandThumb4
													{
														OFFSET 1.692226 -0.977005 0.977007
														CHANNELS 3 Xrotation Yrotation Zrotation
														End Site
														{
															OFFSET 0.000000 0.000000 0.000000
														}
													}
												}
											}
										}
										JOINT LeftHandIndex1
										{
											OFFSET 7.924831 -0.457527 2.345128
											CHANNELS 3 Xrotation Yrotation Zrotation
											JOINT LeftHandIndex2
											{
												OFFSET 3.643303 0.000000 0.000000
												CHANNELS 3 Xrotation Yrotation Zrotation
												JOINT LeftHandIndex3
												{
													OFFSET 3.810799 0.000000 0.000000
													CHANNELS 3 Xrotation Yrotation Zrotation
													JOINT LeftHandIndex4
													{
														OFFSET 2.403702 0.000000 0.000000
														CHANNELS 3 Xrotation Yrotation Zrotation
														End Site
														{
															OFFSET 0.000000 0.000000 0.000000
														}
													}
												}
											}
										}
										JOINT LeftHandMiddle1
										{
											OFFSET 8.563995 0.000000 -0.000000
											CHANNELS 3 Xrotation Yrotation Zrotation
											JOINT LeftHandMiddle2
											{
												OFFSET 3.861618 0.000000 0.000000
												CHANNELS 3 Xrotation Yrotation Zrotation
												JOINT LeftHandMiddle3
												{
													OFFSET 3.701603 0.000000 0.000000
													CHANNELS 3 Xrotation Yrotation Zrotation
													JOINT LeftHandMiddle4
													{
														OFFSET 2.322544 0.000000 0.000000
														CHANNELS 3 Xrotation Yrotation Zrotation
														End Site
														{
															OFFSET 0.000000 0.000000 0.000000
														}
													}
												}
											}
										}
										JOINT LeftHandRing1
										{
											OFFSET 8.426460 -0.424637 -3.286992
											CHANNELS 3 Xrotation Yrotation Zrotation
											JOINT LeftHandRing2
											{
												OFFSET 3.126408 0.000000 0.000000
												CHANNELS 3 Xrotation Yrotation Zrotation
												JOINT LeftHandRing3
												{
													OFFSET 3.085026 0.000000 0.000000
													CHANNELS 3 Xrotation Yrotation Zrotation
													JOINT LeftHandRing4
													{
														OFFSET 1.644005 0.000000 0.000000
														CHANNELS 3 Xrotation Yrotation Zrotation
														End Site
														{
															OFFSET 0.000000 0.000000 0.000000
														}
													}
												}
											}
										}
									}
								}
							}
						}
					}
					JOINT RightShoulder
					{
						OFFSET -2.196100 4.412496 0.070690
						CHANNELS 3 Xrotation Yrotation Zrotation
						JOINT RightShoulder_split
						{
							OFFSET -2.196100 4.412496 0.070690
							CHANNELS 3 Xrotation Yrotation Zrotation
							JOINT RightArm
							{
								OFFSET -8.771282 -2.981682 -0.094208
								CHANNELS 3 Xrotation Yrotation Zrotation
								JOINT RightForeArm
								{
									OFFSET -8.494598 0.000000 0.000000
									CHANNELS 3 Xrotation Yrotation Zrotation
									JOINT RightHand
									{
										OFFSET -18.483803 0.000000 0.000001
										CHANNELS 3 Xrotation Yrotation Zrotation
										JOINT RightHandThumb1
										{
											OFFSET -2.527351 -1.008072 2.575253
											CHANNELS 3 Xrotation Yrotation Zrotation
											JOINT RightHandThumb2
											{
												OFFSET -2.321518 -1.340328 1.340329
												CHANNELS 3 Xrotation Yrotation Zrotation
												JOINT RightHandThumb3
												{
													OFFSET -2.657753 -1.534454 1.534455
													CHANNELS 3 Xrotation Yrotation Zrotation
													JOINT RightHandThumb4
													{
														OFFSET -1.807510 -1.043568 1.043567
														CHANNELS 3 Xrotation Yrotation Zrotation
														End Site
														{
															OFFSET 0.000000 0.000000 0.000000
														}
													}
												}
											}
										}
										JOINT RightHandIndex1
										{
											OFFSET -8.811420 0.015533 2.887987
											CHANNELS 3 Xrotation Yrotation Zrotation
											JOINT RightHandIndex2
											{
												OFFSET -3.537502 0.000000 0.000000
												CHANNELS 3 Xrotation Yrotation Zrotation
												JOINT RightHandIndex3
												{
													OFFSET -3.356201 0.000000 0.000000
													CHANNELS 3 Xrotation Yrotation Zrotation
													JOINT RightHandIndex4
													{
														OFFSET -1.933098 0.000000 0.000000
														CHANNELS 3 Xrotation Yrotation Zrotation
														End Site
														{
															OFFSET 0.000000 0.000000 0.000000
														}
													}
												}
											}
										}
										JOINT RightHandMiddle1
										{
											OFFSET -8.178135 0.000000 0.000000
											CHANNELS 3 Xrotation Yrotation Zrotation
											JOINT RightHandMiddle2
											{
												OFFSET -3.901302 0.000000 0.000000
												CHANNELS 3 Xrotation Yrotation Zrotation
												JOINT RightHandMiddle3
												{
													OFFSET -3.909599 0.000000 0.000000
													CHANNELS 3 Xrotation Yrotation Zrotation
													JOINT RightHandMiddle4
													{
														OFFSET -2.376003 0.000000 0.000000
														CHANNELS 3 Xrotation Yrotation Zrotation
														End Site
														{
															OFFSET 0.000000 0.000000 0.000000
														}
													}
												}
											}
										}
										JOINT RightHandRing1
										{
											OFFSET -7.559013 0.014137 -2.865403
											CHANNELS 3 Xrotation Yrotation Zrotation
											JOINT RightHandRing2
											{
												OFFSET -3.449306 0.000000 0.000000
												CHANNELS 3 Xrotation Yrotation Zrotation
												JOINT RightHandRing3
												{
													OFFSET -3.362106 0.000000 0.000000
													CHANNELS 3 Xrotation Yrotation Zrotation
													JOINT RightHandRing4
													{
														OFFSET -2.076401 0.000000 0.000000
														CHANNELS 3 Xrotation Yrotation Zrotation
														End Site
														{
															OFFSET 0.000000 0.000000 0.000000
														}
													}
												}
											}
										}
									}
								}
							}
						}
					}
				}
			}
		}
	}
	JOINT LeftUpLeg
	{
		OFFSET 10.205400 -3.823500 0.155100
		CHANNELS 3 Xrotation Yrotation Zrotation
		JOINT LeftLeg
		{
			OFFSET 0.708757 -12.982077 0.567790
			CHANNELS 3 Xrotation Yrotation Zrotation
			JOINT LeftFoot
			{
				OFFSET -0.708756 -10.717838 -2.184338
				CHANNELS 3 Xrotation Yrotation Zrotation
				JOINT LeftToeBase
				{
					OFFSET 0.108149 -7.191104 7.560241
					CHANNELS 3 Xrotation Yrotation Zrotation
					JOINT LeftToe_End
					{
						OFFSET 0.070230 0.081724 4.490308
						CHANNELS 3 Xrotation Yrotation Zrotation
						End Site
						{
							OFFSET 0.000000 0.000000 0.000000
						}
					}
				}
			}
		}
	}
	JOINT RightUpLeg
	{
		OFFSET -10.205400 -3.823500 0.005500
		CHANNELS 3 Xrotation Yrotation Zrotation
		JOINT RightLeg
		{
			OFFSET -0.708756 -12.982134 0.610632
			CHANNELS 3 Xrotation Yrotation Zrotation
			JOINT RightFoot
			{
				OFFSET 0.708754 -10.717769 -1.945823
				CHANNELS 3 Xrotation Yrotation Zrotation
				JOINT RightToeBase
				{
					OFFSET -0.108140 -7.191069 7.372968
					CHANNELS 3 Xrotation Yrotation Zrotation
					JOINT RightToe_End
					{
						OFFSET -0.070227 0.081735 4.479403
						CHANNELS 3 Xrotation Yrotation Zrotation
						End Site
						{
							OFFSET 0.000000 0.000000 0.000000
						}
					}
				}
			}
		}
	}
}
MOTION
Frames: 4
Frame Time: 0.016667
-2.875190 26.958073 -1.032900 0.126804 -7.227077 -14.064731 5.639224 0.404481 -1.964176 4.651095 0.654910 1.633864 0.000000 0.000000 0.000000 4.657234 0.491970 1.673782 0.396499 1.761071 0.948531 -15.762641 26.254656 5.119160 0.000000 -0.000001 -0.000000 0.472300 0.823569 -6.564700 0.000000 0.000000 0.000000 41.287046 -17.715626 -58.148727 0.000019 -58.979838 0.000018 -18.820709 -33.533493 26.792950 5.358050 -0.141371 9.666160 3.545745 27.155816 3.560565 3.579365 15.544285 0.630987 -0.000002 0.000001 -0.000000 -1.578837 0.825929 -19.703497 0.405078 2.870999 -21.069214 0.009619 -0.615545 3.987648 0.000000 -0.000003 -0.000001 0.409492 7.162246 -25.647937 0.416496 2.993242 -22.185336 0.003740 -0.023812 3.007761 0.000003 -0.000000 -0.000001 2.386863 10.570843 -32.882368 0.471662 2.115272 -18.421990 0.064944 0.187428 -1.985605 -0.000002 -0.000000 -0.000003 0.625960 0.265401 11.022858 0.000000 0.000000 0.000000 -6.297838 23.802337 54.826905 -0.000053 96.646999 -0.000023 -19.103255 24.520605 -3.410979 0.789340 -8.211545 -4.825389 0.020108 -13.361249 -9.371026 3.749501 -15.817803 -0.052395 0.000001 0.000001 0.000003 -1.070500 -2.247348 17.231270 0.405436 -2.871971 21.079302 -0.189688 0.296871 8.932122 0.000000 0.000001 0.000002 0.438988 -7.256191 26.595157 0.417459 -2.995672 22.211553 0.081195 -1.101476 9.870310 -0.000002 -0.000002 -0.000002 2.698240 -11.184217 32.166100 0.472427 -2.116950 18.440370 -0.173560 0.866926 9.714780 -0.000000 0.000000 0.000000 -76.108784 17.664975 3.269642 122.996366 17.606483 3.576152 0.968805 -0.685342 18.321593 -15.339517 -1.331951 5.360706 -0.000001 -0.000001 0.000002 -28.565852 4.284466 -2.680498 61.526665 8.110896 0.572274 -35.335557 -1.013586 9.608196 -5.746696 0.000039 0.000001 -0.000000 -0.000000 0.000000 
-2.861046 26.729065 2.251326 0.046972 -5.580720 -14.332037 5.612370 2.247415 -1.208625 4.641762 1.992370 1.349663 0.000000 0.000000 0.000000 4.668626 1.846768 1.438064 0.764417 1.195515 1.133490 -15.802199 22.159425 4.754595 0.000000 0.000000 -0.000000 0.417710 0.977526 -5.231575 0.000000 0.000000 0.000000 51.088111 -19.833367 -55.708580 0.000005 -63.791556 0.000026 -19.494475 -33.921376 26.202651 5.358053 -0.141379 9.666163 3.545749 27.155821 3.560561 3.579367 15.544291 0.630991 0.000000 -0.000001 -0.000002 -1.578838 0.825927 -19.703501 0.405079 2.871003 -21.069216 0.009618 -0.615549 3.987645 -0.000001 -0.000003 -0.000004 0.409492 7.162250 -25.647939 0.416496 2.993240 -22.185336 0.003737 -0.023812 3.007765 0.000002 -0.000003 -0.000003 2.386862 10.570846 -32.882371 0.471661 2.115269 -18.421993 0.064940 0.187431 -1.985600 -0.000002 -0.000002 -0.000002 0.552497 2.485367 8.941565 0.000000 0.000000 0.000000 -15.548123 21.166681 54.791515 -0.000002 101.079136 -0.000066 -18.201846 23.757831 -3.922291 0.789340 -8.211543 -4.825393 0.020106 -13.361245 -9.371024 3.749504 -15.817796 -0.052391 -0.000001 -0.000002 -0.000002 -1.070500 -2.247351 17.231268 0.405435 -2.871969 21.079306 -0.189686 0.296870 8.932121 0.000001 -0.000001 -0.000001 0.438990 -7.256191 26.595153 0.417458 -2.995675 22.211553 0.081192 -1.101475 9.870312 -0.000001 -0.000000 0.000000 2.698244 -11.184221 32.166103 0.472428 -2.116948 18.440367 -0.173560 0.866925 9.714777 -0.000001 -0.000001 -0.000000 -89.097816 13.839771 4.146718 113.439791 14.307487 2.640582 10.574294 0.986974 20.387155 -13.378876 -0.501728 3.214458 0.000002 -0.000000 -0.000000 -17.839592 2.237231 -5.072025 61.113247 6.992729 0.776583 -42.355202 0.904316 10.684484 -9.933229 0.000066 0.000008 -0.000001 -0.000000 0.000000 
-2.892125 26.468861 5.903447 0.219468 -3.561521 -14.162917 5.310874 4.434295 -1.060536 4.448708 3.149789 1.037698 0.000000 0.000000 0.000000 4.488396 3.024019 1.166611 1.152620 0.559720 1.495087 -15.349720 17.467119 4.353242 -0.000000 -0.000001 0.000000 0.360097 0.455529 -3.527326 0.000000 0.000000 0.000000 59.840428 -20.330473 -53.492898 0.000010 -68.582182 0.000021 -20.234666 -34.438015 25.571407 5.358051 -0.141373 9.666163 3.545753 27.155818 3.560562 3.579366 15.544288 0.630984 0.000001 0.000001 -0.000002 -1.578839 0.825927 -19.703499 0.405079 2.871004 -21.069216 0.009616 -0.615550 3.987641 0.000000 0.000001 -0.000004 0.409492 7.162247 -25.647939 0.416497 2.993236 -22.185339 0.003743 -0.023817 3.007764 -0.000000 -0.000000 -0.000001 2.386861 10.570846 -32.882371 0.471661 2.115275 -18.421987 0.064941 0.187430 -1.985599 0.000002 0.000003 0.000004 0.572481 3.368496 7.197830 0.000000 0.000000 0.000000 -23.014579 20.036278 54.517224 -0.000028 105.501759 -0.000025 -15.360248 23.077283 -5.389251 0.789337 -8.211542 -4.825394 0.020109 -13.361248 -9.371024 3.749501 -15.817801 -0.052391 -0.000001 -0.000005 0.000003 -1.070504 -2.247353 17.231266 0.405432 -2.871971 21.079299 -0.189686 0.296871 8.932123 -0.000000 -0.000000 -0.000000 0.438990 -7.256188 26.595152 0.417454 -2.995676 22.211557 0.081194 -1.101475 9.870310 -0.000002 0.000001 -0.000001 2.698241 -11.184219 32.166100 0.472425 -2.116951 18.440367 -0.173561 0.866927 9.714780 -0.000004 0.000000 -0.000000 -94.953973 11.380766 2.808093 101.325126 11.857541 1.834451 14.556357 2.764908 20.589534 -6.755370 0.000009 0.000010 -0.000000 0.000000 -0.000000 -6.114397 0.162685 -7.606652 57.956525 6.907673 1.134510 -45.211805 1.741079 12.984209 -17.492143 0.000113 0.000020 -0.000000 0.000000 0.000000 
-2.934166 26.224754 9.747751 0.465215 -1.482257 -13.792595 4.911659 6.765816 -1.274715 4.164442 4.140925 0.752281 0.000000 0.000000 0.000000 4.210768 4.034416 0.914155 1.524936 -0.077952 1.938765 -14.628453 12.752694 3.958218 -0.000000 0.000001 -0.000000 0.346233 -0.354007 -1.729373 0.000000 0.000000 0.000000 67.332497 -19.844165 -52.035130 0.000029 -73.056263 0.000027 -21.063526 -34.966559 24.978881 5.358049 -0.141377 9.666162 3.545753 27.155813 3.560563 3.579367 15.544286 0.630985 -0.000001 0.000001 -0.000000 -1.578838 0.825925 -19.703499 0.405078 2.870999 -21.069219 0.009618 -0.615544 3.987641 -0.000000 0.000000 -0.000002 0.409492 7.162242 -25.647937 0.416496 2.993239 -22.185334 0.003741 -0.023811 3.007768 0.000000 0.000002 -0.000002 2.386862 10.570848 -32.882371 0.471664 2.115269 -18.421992 0.064944 0.187431 -1.985600 -0.000000 0.000002 0.000001 0.591748 3.455527 5.803152 0.000000 0.000000 0.000000 -28.885860 20.146538 54.610129 0.000015 109.781310 -0.000050 -11.356434 22.070662 -7.051896 0.789334 -8.211544 -4.825387 0.020106 -13.361245 -9.371021 3.749505 -15.817806 -0.052391 0.000004 0.000001 0.000002 -1.070502 -2.247354 17.231266 0.405437 -2.871969 21.079294 -0.189680 0.296871 8.932122 -0.000001 -0.000000 -0.000000 0.438987 -7.256192 26.595153 0.417457 -2.995674 22.211557 0.081193 -1.101475 9.870311 0.000000 -0.000000 0.000000 2.698241 -11.184220 32.166103 0.472427 -2.116949 18.440367 -0.173562 0.866925 9.714779 -0.000002 0.000000 0.000001 -96.385683 9.907422 0.546211 87.493501 10.429013 1.230520 15.002316 4.187925 20.122022 -7.089153 0.000016 0.000005 0.000000 -0.000000 -0.000000 4.924922 -1.758892 -9.781717 52.866392 7.570119 1.439001 -41.785079 1.968711 16.276351 -29.976737 0.000191 0.000051 0.000001 -0.000000 -0.000000 
